<?xml version="1.0" standalone="no"?>
<!DOCTYPE svg PUBLIC "-//W3C//DTD SVG 20010904//EN"
 "http://www.w3.org/TR/2001/REC-SVG-20010904/DTD/svg10.dtd">
<svg version="1.0" xmlns="http://www.w3.org/2000/svg"
 width="3000.000000pt" height="3000.000000pt" viewBox="0 0 3000.000000 3000.000000"
 preserveAspectRatio="xMidYMid meet">
<metadata>
Created by potrace 1.14, written by Peter Selinger 2001-2017
</metadata>
<g transform="translate(0.000000,3000.000000) scale(0.100000,-0.100000)"
fill="#000000" stroke="none">
<path d="M5590 20129 c-14 -11 -32 -25 -40 -32 -65 -52 -230 -186 -250 -203
-31 -26 -202 -175 -250 -217 -517 -451 -1207 -1178 -1627 -1717 -6 -8 -31 -40
-55 -70 -298 -375 -711 -1004 -910 -1385 -94 -179 -201 -398 -253 -515 -110
-251 -263 -667 -281 -766 -2 -12 -15 -54 -28 -95 -22 -69 -44 -143 -51 -179
-2 -8 -10 -44 -19 -80 -8 -36 -18 -78 -21 -95 -15 -76 -34 -188 -40 -227 -3
-24 -8 -50 -10 -58 -2 -8 -7 -39 -10 -69 -4 -30 -9 -63 -11 -75 -2 -12 -6 -43
-9 -71 -3 -27 -8 -72 -11 -98 -12 -101 -19 -422 -13 -580 3 -68 0 -90 -11 -97
-18 -11 -22 -60 -4 -60 15 0 22 -32 39 -165 11 -95 17 -140 21 -160 2 -11 7
-33 10 -49 2 -16 7 -33 9 -36 3 -4 7 -29 10 -56 3 -27 8 -62 12 -79 9 -37 7
-32 21 -80 6 -22 13 -51 15 -65 13 -72 54 -203 120 -380 96 -262 199 -467 371
-745 167 -270 321 -463 560 -701 270 -269 535 -469 891 -672 157 -89 423 -205
614 -268 89 -29 337 -98 390 -109 9 -2 50 -10 91 -19 95 -19 120 -23 200 -31
36 -4 72 -8 80 -10 13 -2 85 -10 195 -21 116 -11 195 -16 300 -16 129 0 396
11 406 17 3 2 30 7 60 10 30 3 65 8 79 10 49 10 76 15 135 26 33 5 87 17 120
26 33 8 71 17 85 19 14 3 59 14 100 25 506 137 923 342 1345 659 281 212 486
412 725 710 19 24 40 48 45 54 17 18 207 305 251 381 86 146 112 194 168 309
82 170 174 399 206 511 5 17 20 68 35 115 14 47 27 94 30 105 2 11 13 54 24
95 23 90 34 148 46 259 3 29 7 56 9 60 8 13 18 103 33 296 10 127 10 395 0
490 -5 44 -10 96 -12 115 -4 44 -16 165 -20 205 -4 36 -14 100 -21 135 -2 14
-6 34 -8 45 -2 11 -11 54 -20 95 -8 41 -18 90 -21 108 -11 66 -36 177 -61 275
-14 56 -27 107 -28 112 -1 6 -18 62 -38 125 -20 63 -47 149 -59 190 -12 41
-29 88 -37 104 -8 16 -38 97 -67 180 -71 201 -101 270 -273 626 -213 440 -497
910 -826 1367 -45 61 -88 121 -96 134 -8 12 -19 27 -25 33 -5 6 -37 47 -70 91
-304 404 -675 826 -1085 1235 -186 185 -390 381 -471 451 -13 11 -40 35 -59
53 -43 39 -378 327 -440 378 -104 85 -173 138 -179 138 -3 -1 -17 -10 -31 -21z
m258 -3354 c58 -4 112 -8 121 -10 9 -1 45 -6 81 -10 36 -4 74 -9 85 -11 11 -3
36 -7 55 -10 19 -3 98 -21 175 -39 820 -201 1527 -692 1976 -1375 106 -161
104 -158 190 -330 109 -217 182 -412 239 -634 66 -261 84 -365 97 -571 19
-309 5 -571 -41 -790 -8 -39 -17 -82 -20 -95 -86 -449 -293 -905 -590 -1304
-105 -140 -265 -315 -391 -426 -28 -25 -68 -60 -88 -78 -36 -31 -263 -204
-303 -230 -171 -110 -387 -229 -504 -276 -25 -11 -64 -27 -87 -37 -60 -27
-323 -114 -413 -138 -119 -31 -286 -63 -395 -76 -27 -4 -61 -8 -75 -11 -127
-22 -469 -22 -650 0 -19 3 -62 7 -95 11 -33 3 -67 8 -75 10 -8 3 -31 7 -50 9
-62 8 -204 37 -252 51 -27 8 -48 12 -48 10 0 -2 -16 3 -35 11 -19 8 -37 14
-40 13 -9 -1 -147 42 -195 62 -25 10 -76 30 -115 45 -101 38 -366 172 -487
245 -145 88 -343 233 -408 299 -3 3 -32 27 -65 54 -66 54 -198 186 -260 260
-22 27 -45 53 -51 60 -145 158 -343 463 -456 704 -74 158 -78 169 -78 184 0 8
-4 18 -9 23 -7 9 -20 43 -92 241 -10 27 -20 72 -24 98 -3 26 -9 55 -14 64 -5
10 -12 37 -16 62 -4 25 -13 70 -20 100 -17 69 -23 100 -29 175 -4 33 -8 87
-11 120 -3 33 -8 78 -10 100 -15 133 -2 524 20 635 3 14 7 39 9 55 13 93 54
291 71 345 8 25 16 57 19 73 5 30 98 291 123 347 94 206 187 381 264 497 136
203 127 191 257 343 392 458 860 779 1402 963 128 44 405 119 480 131 19 3 78
12 130 20 145 22 176 26 305 32 66 4 121 7 122 8 4 3 174 -3 271 -9z"/>
<path d="M5428 16555 c-2 -1 -38 -6 -81 -10 -43 -3 -88 -8 -100 -10 -12 -2
-44 -6 -72 -10 -275 -34 -637 -147 -923 -287 -739 -363 -1294 -995 -1557
-1773 -49 -146 -110 -427 -132 -615 -10 -86 -10 -538 0 -615 4 -33 10 -80 13
-105 5 -36 42 -228 59 -302 67 -292 216 -632 400 -913 333 -508 821 -915 1380
-1147 167 -70 369 -137 493 -163 97 -21 227 -45 267 -50 28 -4 61 -8 75 -11
147 -25 643 -25 775 0 11 2 45 7 75 11 82 11 285 53 370 76 103 29 275 87 325
109 11 4 69 30 130 56 722 315 1315 935 1602 1674 63 164 144 453 157 565 2 9
12 83 21 145 25 166 25 564 0 722 -2 12 -6 45 -10 71 -4 27 -8 59 -11 70 -2
12 -7 38 -10 57 -9 60 -62 262 -92 356 -137 416 -361 796 -657 1113 -70 75
-185 186 -235 227 -19 16 -39 34 -45 40 -15 18 -174 136 -258 192 -288 195
-654 358 -979 438 -10 2 -26 6 -35 8 -87 22 -252 50 -358 62 -27 3 -61 8 -75
11 -27 5 -507 13 -512 8z m482 -1054 c36 -5 81 -13 100 -15 62 -9 174 -37 285
-72 545 -174 1026 -610 1238 -1124 108 -262 150 -468 151 -745 1 -287 -51
-533 -166 -788 -104 -231 -228 -410 -417 -598 -143 -143 -280 -244 -480 -354
-161 -89 -471 -195 -616 -211 -22 -3 -46 -7 -54 -10 -70 -24 -500 -24 -627 0
-12 3 -39 7 -60 10 -71 12 -201 45 -290 75 -316 105 -592 277 -822 513 -158
162 -237 271 -354 488 -51 95 -134 314 -152 400 -3 14 -7 34 -9 45 -9 38 -27
140 -36 205 -9 64 -8 426 2 465 2 11 8 40 12 65 38 246 150 532 292 748 32 48
60 89 63 92 3 3 31 37 62 76 172 216 416 408 683 539 156 76 359 147 490 169
17 3 54 10 84 16 30 6 84 13 120 16 36 4 67 8 69 9 9 8 375 -4 432 -14z"/>
<path d="M10177 18142 c-16 -3 -17 -255 -17 -3793 l0 -3789 525 0 525 0 0
3790 c0 3603 -1 3790 -17 3791 -81 2 -1003 3 -1016 1z"/>
<path d="M11775 14360 c0 -3363 2 -3790 15 -3791 103 -4 1022 0 1027 5 3 3 6
1708 6 3788 l0 3783 -524 3 -524 2 0 -3790z"/>
<path d="M13451 13491 c1 -1468 -1 -1420 58 -1650 168 -648 713 -1075 1596
-1250 55 -11 120 -22 145 -26 25 -3 56 -8 70 -10 28 -5 170 -22 245 -30 224
-24 950 -25 1070 -1 11 2 56 7 99 11 43 4 86 8 95 10 9 1 41 6 71 10 30 3 69
9 85 11 17 3 41 7 55 9 75 10 295 58 363 78 26 8 47 13 47 11 0 -5 290 95 337
116 24 11 45 20 49 20 10 0 207 101 269 138 162 96 350 257 448 381 28 36 54
68 57 71 35 34 140 231 183 345 30 78 74 243 82 308 3 23 10 74 14 112 5 39
10 658 10 1376 l1 1306 -485 0 -485 0 -1 -1316 c-1 -724 -3 -1334 -5 -1356
-41 -496 -310 -854 -785 -1046 -141 -57 -387 -119 -534 -134 -33 -4 -71 -8
-85 -11 -133 -21 -606 -21 -740 0 -14 2 -47 7 -75 11 -125 16 -340 68 -439
106 -251 97 -423 212 -562 374 -144 169 -220 340 -268 600 -16 84 -18 303 -20
1485 l-1 1285 -483 1 -483 1 2 -1346z"/>
<path d="M19824 14819 c-2 -3 48 -55 110 -115 62 -60 232 -224 376 -364 144
-140 299 -291 345 -335 45 -44 206 -200 356 -346 151 -147 304 -295 340 -330
181 -175 576 -557 600 -583 l28 -28 -58 -57 c-33 -31 -137 -130 -231 -221 -95
-91 -196 -187 -225 -215 -29 -27 -128 -122 -220 -210 -92 -88 -189 -180 -215
-205 -73 -70 -238 -227 -455 -435 -109 -104 -217 -208 -240 -230 -249 -237
-407 -388 -499 -477 l-111 -107 550 -1 551 0 91 98 c50 53 118 125 150 158 32
34 119 126 193 204 74 78 187 197 250 264 63 66 213 220 334 341 183 184 324
332 488 510 15 16 60 69 100 117 40 47 78 87 85 87 6 1 132 -120 280 -267 147
-147 342 -338 431 -423 90 -84 374 -364 632 -621 l467 -468 557 0 556 0 -82
79 c-46 44 -106 101 -134 128 -28 26 -123 116 -210 199 -87 84 -179 171 -204
194 -25 23 -112 106 -194 184 -81 77 -169 161 -195 186 -119 113 -371 353
-417 396 -211 201 -375 358 -409 389 -22 21 -109 104 -193 184 -84 80 -178
169 -209 197 l-55 51 30 29 c16 16 71 67 122 114 51 47 104 96 119 110 15 14
56 52 92 84 35 33 115 107 178 165 62 58 119 111 125 116 33 30 290 267 346
319 53 49 243 225 320 296 33 30 139 128 255 235 65 61 126 117 135 125 9 8
43 40 76 70 32 30 113 105 179 165 65 61 152 142 193 180 l74 70 -550 0 -550
0 -282 -280 c-970 -965 -1097 -1093 -1231 -1250 -19 -22 -44 -51 -57 -65 -12
-14 -39 -46 -60 -72 -20 -25 -45 -49 -54 -51 -12 -3 -37 18 -80 67 -35 39 -72
80 -83 92 -11 12 -70 75 -131 140 -127 136 -203 213 -504 521 -164 168 -592
607 -858 879 -7 8 -16 15 -20 15 -26 5 -1095 3 -1098 -2z"/>
<path d="M10897 10064 c-1 -1 -50 -4 -109 -8 -59 -3 -113 -8 -120 -11 -7 -2
-26 -6 -43 -9 -190 -30 -343 -100 -438 -200 -52 -55 -96 -144 -111 -226 -19
-96 -19 -1338 0 -1426 36 -175 158 -302 353 -369 78 -26 209 -55 286 -62 28
-3 419 -6 870 -8 591 -2 830 1 854 9 47 15 72 52 77 117 5 66 -17 118 -60 138
-23 11 -181 14 -850 16 -451 2 -839 6 -861 9 -118 19 -215 59 -269 113 -66 67
-69 81 -71 348 -1 132 0 245 2 250 2 7 345 10 1010 10 821 0 1011 2 1034 13
76 37 76 217 -1 254 -21 10 -230 13 -1036 13 l-1009 0 1 255 c1 155 5 265 12
281 27 67 106 129 208 162 87 28 123 35 289 52 22 2 141 4 265 5 187 1 229 4
252 18 68 40 72 187 6 234 -28 20 -42 21 -285 22 -140 0 -255 0 -256 0z"/>
<path d="M22944 9959 c-102 -23 -145 -80 -139 -186 5 -93 57 -141 163 -150
119 -10 207 26 233 94 11 31 12 114 0 145 -14 37 -60 77 -101 88 -49 13 -119
17 -156 9z"/>
<path d="M27007 9544 c-1 -1 -38 -4 -82 -8 -317 -23 -495 -138 -532 -342 -10
-53 -9 -258 1 -313 26 -133 137 -243 301 -299 71 -24 91 -28 255 -47 19 -2
238 -4 486 -5 273 0 466 -5 490 -11 135 -35 174 -89 174 -236 0 -110 -12 -153
-52 -192 -67 -66 -55 -65 -863 -68 -401 -1 -736 -3 -742 -4 -25 -4 -66 -59
-73 -99 -10 -55 3 -107 35 -139 l25 -26 753 0 c413 0 773 3 798 8 215 35 359
140 405 295 24 84 24 86 25 223 2 215 -47 325 -185 415 -46 31 -145 69 -201
79 -22 3 -51 9 -65 11 -14 3 -235 7 -491 8 -502 4 -576 8 -654 37 -55 20 -108
69 -120 109 -10 34 -8 191 4 221 13 35 50 66 101 85 38 15 97 18 355 23 290 6
312 7 337 26 46 35 57 128 24 194 -25 47 -65 54 -299 55 -115 1 -209 0 -210 0z"/>
<path d="M13687 9534 c-1 -1 -38 -4 -82 -8 -101 -8 -111 -9 -277 -50 -9 -3
-46 -19 -83 -37 -119 -57 -204 -155 -235 -269 -9 -33 -13 -214 -13 -685 0
-714 -2 -694 67 -728 43 -20 144 -17 178 5 56 37 55 26 55 703 0 709 -4 671
85 731 93 63 138 68 668 69 261 0 505 -3 542 -7 135 -14 227 -60 265 -131 15
-29 17 -94 18 -657 0 -694 -1 -676 65 -710 46 -23 146 -22 184 3 60 40 59 20
59 717 -1 663 -1 673 -45 769 -59 129 -243 233 -473 266 -22 3 -58 8 -80 11
-34 5 -892 13 -898 8z"/>
<path d="M20728 9535 c-2 -1 -38 -5 -80 -9 -111 -9 -257 -49 -338 -92 -135
-70 -223 -186 -248 -324 -6 -32 -9 -235 -8 -490 2 -431 2 -436 25 -495 87
-222 304 -334 695 -360 28 -2 307 -4 619 -4 l569 -1 -3 -37 c-6 -74 -58 -127
-161 -162 -88 -30 -106 -32 -373 -37 -294 -5 -305 -7 -335 -39 -32 -34 -40
-125 -15 -170 30 -56 46 -60 279 -59 277 0 375 10 516 51 208 60 338 177 376
340 14 59 16 157 16 738 1 369 -2 686 -5 705 -23 134 -105 250 -231 324 -59
34 -204 82 -291 96 -38 6 -81 13 -95 17 -25 5 -906 14 -912 8z m914 -280 c92
-14 104 -18 165 -47 57 -28 102 -74 125 -128 19 -42 20 -70 20 -485 -1 -242
-1 -468 -1 -502 l-1 -61 -594 0 c-652 1 -709 4 -831 50 -76 28 -147 96 -161
153 -6 23 -9 209 -9 435 1 442 1 438 73 501 49 43 104 66 198 82 108 19 895
20 1016 2z"/>
<path d="M24359 9536 c-2 -2 -35 -6 -74 -10 -320 -30 -532 -176 -585 -405 -9
-39 -13 -170 -12 -476 0 -461 3 -495 60 -598 81 -150 263 -250 512 -282 30 -3
68 -9 84 -11 25 -4 348 -7 463 -5 21 1 44 11 63 29 27 23 32 35 35 88 5 72
-16 122 -58 142 -20 10 -101 14 -295 17 -147 1 -280 6 -297 9 -136 29 -212 72
-244 139 -19 40 -21 58 -19 177 l3 133 910 1 c830 1 912 2 933 18 57 39 57 40
58 342 2 359 -10 417 -108 519 -70 73 -195 134 -317 153 -18 3 -43 8 -55 12
-22 6 -1050 14 -1057 8z m1051 -285 c109 -29 170 -83 186 -166 8 -44 12 -314
4 -316 -15 -4 -1587 -4 -1598 -1 -20 7 -15 297 6 337 38 75 109 118 242 145
74 15 148 17 590 17 442 0 513 -2 570 -16z"/>
<path d="M19057 9524 c-1 -2 -20 -5 -42 -8 -238 -30 -401 -120 -483 -266 -60
-106 -61 -123 -62 -794 0 -435 3 -618 11 -641 19 -50 68 -78 139 -77 40 0 71
6 92 19 64 37 62 17 63 683 2 676 -1 647 73 723 70 72 183 98 427 99 72 0 142
5 157 10 65 24 73 179 12 235 -24 22 -31 23 -205 21 -98 -1 -180 -3 -182 -4z"/>
<path d="M16369 9516 c-2 -2 -31 -7 -64 -11 -320 -36 -518 -175 -568 -396 -12
-54 -14 -148 -12 -500 2 -419 3 -436 24 -494 34 -93 82 -159 161 -217 61 -46
177 -97 250 -112 14 -2 50 -10 80 -16 92 -18 196 -24 417 -25 199 0 213 1 240
21 60 45 61 183 1 227 -25 19 -45 20 -280 23 -322 3 -417 18 -510 79 -65 43
-81 89 -83 243 -1 72 1 133 4 133 3 1 417 2 919 3 l914 1 34 38 35 37 -1 300
c-1 247 -4 308 -17 347 -36 107 -106 184 -214 237 -65 32 -101 43 -224 72 -30
8 -1099 17 -1106 10z m956 -266 c117 -4 216 -36 257 -84 48 -56 52 -73 52
-246 l1 -165 -805 0 -805 0 1 150 c0 133 3 155 22 192 31 59 93 102 180 124 4
1 23 6 42 11 73 19 671 29 1055 18z"/>
<path d="M22966 9428 c-45 -10 -74 -32 -88 -68 -6 -16 -10 -314 -10 -788 l0
-763 26 -34 c28 -37 69 -51 139 -47 53 2 93 27 113 68 16 33 17 98 17 784 0
799 0 792 -49 825 -34 22 -102 33 -148 23z"/>
</g>
</svg>
